ffmpeg version 7.1.1-1ubuntu4.2 Copyright (c) 2000-2025 the FFmpeg developers
  built with gcc 15 (Ubuntu 15.2.0-4ubuntu4)
  configuration: --prefix=/usr --extra-version=1ubuntu4.2 --toolchain=hardened --libdir=/usr/lib/x86_64-linux-gnu --incdir=/usr/include/x86_64-linux-gnu --arch=amd64 --enable-gpl --disable-stripping --disable-libmfx --disable-omx --enable-gnutls --enable-libaom --enable-libass --enable-libbs2b --enable-libcdio --enable-libcodec2 --enable-libdav1d --enable-libflite --enable-libfontconfig --enable-libfreetype --enable-libfribidi --enable-libglslang --enable-libgme --enable-libgsm --enable-libharfbuzz --enable-libmp3lame --enable-libmysofa --enable-libopenjpeg --enable-libopenmpt --enable-libopus --enable-librubberband --enable-libshine --enable-libsnappy --enable-libsoxr --enable-libspeex --enable-libtheora --enable-libtwolame --enable-libvidstab --enable-libvorbis --enable-libvpx --enable-libwebp --enable-libx265 --enable-libxml2 --enable-libxvid --enable-libzimg --enable-openal --enable-opencl --enable-opengl --disable-sndio --enable-libvpl --enable-libdc1394 --enable-libdrm --enable-libiec61883 --enable-chromaprint --enable-frei0r --enable-ladspa --enable-libbluray --enable-libcaca --enable-libdvdnav --enable-libdvdread --enable-libjack --enable-libpulse --enable-librabbitmq --enable-librist --enable-libsrt --enable-libssh --enable-libsvtav1 --enable-libx264 --enable-libzmq --enable-libzvbi --enable-lv2 --enable-sdl2 --enable-libplacebo --enable-librav1e --enable-pocketsphinx --enable-librsvg --enable-libjxl --enable-shared
  libavutil      59. 39.100 / 59. 39.100
  libavcodec     61. 19.101 / 61. 19.101
  libavformat    61.  7.100 / 61.  7.100
  libavdevice    61.  3.100 / 61.  3.100
  libavfilter    10.  4.100 / 10.  4.100
  libswscale      8.  3.100 /  8.  3.100
  libswresample   5.  3.100 /  5.  3.100
  libpostproc    58.  3.100 / 58.  3.100
[sdp @ 0x57f265deb4c0] Stream #0: not enough frames to estimate rate; consider increasing probesize
Input #0, sdp, from '/mnt/data/tmp/promeki/phase3.sdp':
  Metadata:
    title           : promeki RTP stream
  Duration: N/A, start: 0.000000, bitrate: 1536 kb/s
  Stream #0:0: Video: rawvideo (RGB[24] / 0x18424752), rgb24(pc, bt709/bt709/unknown, progressive), 1920x1080, 90k tbr, 90k tbn
  Stream #0:1: Audio: pcm_s16be, 48000 Hz, stereo, s16, 1536 kb/s
Stream mapping:
  Stream #0:0 -> #0:0 (rawvideo (native) -> wrapped_avframe (native))
  Stream #0:1 -> #0:1 (pcm_s16be (native) -> pcm_s16le (native))
Press [q] to stop, [?] for help
Output #0, null, to 'pipe:':
  Metadata:
    title           : promeki RTP stream
    encoder         : Lavf61.7.100
  Stream #0:0: Video: wrapped_avframe, rgb24(pc, bt709/bt709/unknown, progressive), 1920x1080, q=2-31, 200 kb/s, 90k fps, 90k tbn
      Metadata:
        encoder         : Lavc61.19.101 wrapped_avframe
  Stream #0:1: Audio: pcm_s16le, 48000 Hz, stereo, s16, 1536 kb/s
      Metadata:
        encoder         : Lavc61.19.101 pcm_s16le
frame=   15 fps=0.0 q=-0.0 size=N/A time=00:00:00.46 bitrate=N/A speed=0.934x    frame=   30 fps= 30 q=-0.0 size=N/A time=00:00:00.96 bitrate=N/A speed=0.967x    frame=   44 fps= 29 q=-0.0 size=N/A time=00:00:01.43 bitrate=N/A speed=0.956x    frame=   59 fps= 29 q=-0.0 size=N/A time=00:00:01.93 bitrate=N/A speed=0.967x    [out#0/null @ 0x57f265e55c00] video:26KiB audio:375KiB subtitle:0KiB other streams:0KiB global headers:0KiB muxing overhead: unknown
frame=   60 fps= 29 q=-0.0 Lsize=N/A time=00:00:01.96 bitrate=N/A speed=0.94x    
